PathFileType	4	(X/Y/Z)	D:\TRACE\v60_Jaco2_6-2-23\JustArmDRS_Motion1_1-v60.trc
DataRate	CameraRate	NumFrames	NumMarkers	Units	OrigDataRate	OrigDataStartFrame	OrigNumFrames
100.00	100.00	      31	9	mm	100.00	2567	      6844
Frame#	Time	front left toe			Front right toe			aft left toe			aft right toe			Arm			FL body			FR body			AL Body			AR Body			
		X1	Y1	Z1	X2	Y2	Z2	X3	Y3	Z3	X4	Y4	Z4	X5	Y5	Z5	X6	Y6	Z6	X7	Y7	Z7	X8	Y8	Z8	X9	Y9	Z9	

2567	25.660	-246.23813	21.32340	-163.05847	162.00243	22.75845	-208.09660	-179.68997	9.84031	441.30130	222.62137	15.82725	429.07855	-84.29275	1154.90405	-570.13116	-148.71585	577.52289	-304.88684	10.77424	582.47595	-321.59552	-51.22420	581.68115	635.37567	104.95635	580.31720	620.44293	
2568	25.670	-245.73070	21.48242	-163.03473	162.31639	22.81363	-208.06525	-179.24408	9.58517	441.29266	222.93947	15.55999	429.16025	-84.04524	1155.25269	-569.89954	-148.37880	577.45477	-305.02734	11.13026	582.49060	-321.46594	-50.82842	581.38751	635.59650	105.25437	580.32501	620.58203	
2569	25.680	-245.16063	21.52258	-162.99675	162.55220	22.87297	-208.05382	-178.66615	9.31927	441.26541	223.46024	15.49160	429.17505	-83.03574	1155.42004	-569.31744	-147.93033	577.72540	-304.61945	11.50158	582.62091	-321.24557	-50.56270	581.13269	635.90656	105.85952	580.12543	620.90454	
2570	25.690	-244.66161	21.61059	-162.91411	163.06969	22.96691	-207.93988	-178.06573	9.12413	441.27914	223.88080	15.16502	429.11426	-82.47731	1155.46802	-568.90796	-147.09329	577.71234	-304.43881	12.17223	582.80688	-320.88919	-50.20179	580.78931	636.09302	106.18668	579.85474	620.98230	
2571	25.700	-244.20992	21.65207	-162.83850	163.74170	23.21636	-207.72395	-177.93973	9.09303	441.36511	223.93526	14.94936	429.23392	-82.04044	1155.75513	-568.71204	-146.13911	577.79266	-304.05493	12.42958	583.01508	-320.67175	-49.73270	580.52374	636.27155	105.94164	579.17126	621.03308	
2572	25.710	-243.63168	21.63533	-162.70001	164.41370	23.40661	-207.58929	-177.55786	8.90290	441.43744	225.38115	14.89479	429.32114	-81.44023	1156.01331	-568.29565	-145.96118	578.34882	-303.96295	12.90607	583.10004	-320.48837	-49.33799	580.28192	636.36066	106.65393	578.94080	621.58447	
2573	25.720	-243.23015	21.76708	-162.62511	164.72565	23.50929	-207.57925	-176.97652	8.60857	441.45444	225.80283	14.76293	429.46359	-80.69962	1156.27527	-567.64270	-145.72940	578.64063	-303.91620	14.20230	583.28442	-320.49426	-48.97911	579.94000	636.65198	107.47430	579.15417	621.70099	
2574	25.730	-242.68477	21.90037	-162.57219	165.15543	23.49636	-207.53998	-176.41931	8.41765	441.40961	226.10796	14.50827	429.42319	-79.87634	1156.54993	-567.45911	-145.24591	578.59814	-303.99652	14.79364	583.48395	-320.27460	-48.62411	579.80237	636.81171	107.96979	578.81097	621.88947	
2575	25.740	-241.95508	22.03394	-162.53145	165.79004	23.54266	-207.45537	-175.70544	8.12786	441.46762	226.46635	14.23104	429.61429	-79.40280	1156.91284	-567.14465	-144.49757	578.65680	-303.70724	15.26328	583.64282	-320.22061	-48.03788	579.50604	637.01666	108.11379	578.40808	622.15936	
2576	25.750	-241.48845	22.06082	-162.48463	166.52426	23.67765	-207.20267	-174.90147	7.89724	441.63513	226.87862	13.89271	429.60468	-78.42874	1157.14905	-566.42651	-143.50653	578.69128	-303.56268	16.12488	583.72015	-320.06049	-48.17720	579.22156	636.80121	108.43799	578.08160	622.24634	
2577	25.760	-240.86836	22.21614	-162.38640	167.03734	23.75354	-207.07304	-174.56117	7.86555	441.81772	227.82191	13.86627	429.79971	-77.72626	1157.58240	-565.95813	-142.78987	579.08771	-303.35507	16.98800	583.91589	-319.79840	-47.43295	578.91003	637.00562	108.59799	577.83350	622.52850	
2578	25.770	-240.29433	22.18184	-162.34822	167.23323	23.67736	-207.13602	-173.92809	7.58167	441.91779	228.30167	13.70465	429.90729	-76.72958	1157.82751	-565.57056	-142.51643	579.49066	-303.24164	16.78028	584.07111	-319.36536	-46.68710	578.64587	637.40924	109.48784	577.59875	622.70294	
2579	25.780	-239.83162	22.49294	-162.17174	168.02498	23.78114	-207.13261	-173.23473	7.31301	441.92725	228.88210	13.54515	430.03171	-75.82902	1158.13818	-565.11432	-141.82837	579.52911	-303.22006	17.29895	584.30011	-319.28412	-46.41675	578.45624	637.61523	109.83419	577.38702	622.99878	
2580	25.790	-238.98907	22.57247	-162.22670	168.99629	23.97244	-206.97440	-172.68817	7.05074	441.93976	229.48331	13.26895	430.02359	-75.13671	1158.32764	-564.69238	-140.97316	579.49658	-302.94934	18.31365	584.50214	-318.89560	-45.78646	578.23053	637.89618	110.49348	576.89722	623.15582	
2581	25.800	-238.39209	22.53873	-162.17258	169.64316	24.16128	-206.79095	-172.07137	6.79371	441.89285	230.20244	13.14866	430.17429	-74.30267	1158.71167	-563.98199	-140.16206	579.54254	-302.97577	19.49029	584.86169	-319.10117	-45.24058	578.00378	638.09454	110.85999	576.72253	623.43506	
2582	25.810	-237.84995	22.63032	-162.00500	169.97502	24.21944	-206.81702	-171.68788	6.86957	442.06088	230.98442	12.94312	430.17847	-73.40495	1159.03198	-563.74438	-139.20406	579.84247	-302.21942	20.17295	585.02710	-318.94373	-44.75563	577.67590	638.03979	111.48235	576.36108	623.90021	
2583	25.820	-237.18076	22.76147	-161.95976	170.58751	24.32807	-206.75755	-172.39615	7.63789	441.74606	231.23663	12.68031	430.25586	-72.42092	1159.31006	-563.37018	-138.81647	580.23047	-302.51685	20.93321	585.09613	-318.67200	-43.99446	577.25574	638.49164	112.35538	576.18738	623.82617	
2584	25.830	-236.78990	22.93794	-161.92871	171.52515	24.53006	-206.70561	-171.55151	7.31856	441.77710	231.99170	12.42146	430.35168	-71.57053	1159.46106	-562.76239	-138.28122	580.38000	-302.30457	21.81176	585.17413	-318.50772	-43.47173	576.97034	638.68036	112.70834	575.65613	624.02094	
2585	25.840	-235.56236	23.02273	-161.76028	172.27431	24.71676	-206.60413	-170.93002	6.99949	441.88519	233.14705	12.30105	430.61972	-70.92424	1159.96924	-562.54706	-136.98430	580.48773	-301.97797	22.42366	585.24188	-318.43112	-43.00026	576.80463	638.79712	113.04581	575.30670	624.10077	
2586	25.850	-235.02675	23.14671	-161.76654	172.62323	24.72773	-206.62373	-170.36046	6.91893	441.97391	233.63545	12.17424	430.56058	-69.63510	1159.99841	-562.06885	-136.71289	580.56873	-301.94693	22.80937	585.33685	-317.78140	-42.10059	576.48114	639.01019	113.83250	574.94708	624.29669	
2587	25.860	-234.42429	23.06497	-161.81165	173.33942	24.83545	-206.52106	-169.62372	6.82129	442.11221	234.03438	11.92221	430.60608	-68.65384	1160.27795	-561.67322	-135.34943	580.60132	-301.42444	23.52818	585.54309	-317.59293	-41.45585	576.19849	639.18304	114.62328	574.52637	624.77875	
2588	25.870	-233.82018	23.25246	-161.69302	174.35107	24.90348	-206.42621	-168.85228	6.55123	442.17087	234.68646	11.64294	430.60968	-67.96813	1160.38452	-561.42548	-134.97951	581.18469	-301.62137	25.31166	585.79175	-317.90692	-41.03259	575.97797	639.04974	115.48028	574.50610	624.96069	
2589	25.880	-233.02539	23.36886	-161.61964	175.13240	25.08052	-206.34599	-168.26570	6.47476	442.17023	235.95921	11.60661	430.81897	-66.79930	1160.62158	-560.82782	-133.77211	581.19635	-301.36407	25.71031	585.91199	-317.74780	-39.88543	575.65424	640.13434	116.52888	574.45441	625.00854	
2590	25.890	-232.08539	23.46911	-161.59004	175.63849	25.10351	-206.25267	-167.19662	6.12566	442.12982	236.58473	11.42127	430.76541	-65.63325	1161.14819	-560.26343	-133.20088	581.27148	-301.30069	26.46105	586.13464	-317.56967	-39.34952	575.36639	640.32239	116.68022	573.89594	625.14954	
2591	25.900	-231.48363	23.75763	-161.48769	176.31883	25.21368	-206.05762	-166.76112	6.14126	442.27597	236.99745	11.23529	430.83627	-65.02087	1161.34045	-559.85229	-132.42723	581.41370	-301.33377	27.42501	586.29309	-317.44122	-38.81583	575.13806	639.90228	117.46436	573.60687	625.29926	
2592	25.910	-230.95111	23.95543	-161.37053	177.15889	25.35679	-205.96521	-165.71678	5.82964	442.33994	238.11668	11.05154	431.04410	-63.83395	1161.68823	-559.43475	-131.46783	581.83087	-301.08850	28.02796	586.25751	-316.82050	-37.92000	574.82977	640.10785	117.78983	573.05939	625.34259	
2593	25.920	-230.01300	23.89893	-161.34355	178.10455	25.43273	-205.91858	-164.98291	5.61942	442.35065	238.71327	10.71677	431.20078	-62.95884	1162.09753	-559.18079	-130.30266	582.00189	-300.79117	28.76583	586.34515	-316.60342	-37.19698	574.64398	640.21539	118.63795	573.09912	625.57526	
2594	25.930	-229.02560	23.80800	-161.31995	178.73048	25.39372	-205.94388	-164.32944	5.40009	442.27414	239.19395	10.49459	431.19382	-61.77147	1162.46667	-558.52448	-129.72292	582.02942	-300.77966	29.71007	586.45520	-316.51471	-36.76112	574.42633	640.05347	119.71023	572.88379	625.75476	
2595	25.940	-228.51373	24.10835	-161.38159	179.45581	25.52859	-205.84570	-163.52365	5.23556	442.32510	240.41298	10.54521	431.12744	-61.27721	1162.85156	-558.40662	-128.80760	582.09082	-300.68973	30.53687	586.64520	-316.35776	-35.96689	574.15833	640.17511	120.41484	572.66394	625.93341	
2596	25.950	-227.77620	24.30572	-161.23911	180.38353	25.60439	-205.74657	-162.55241	4.99040	442.43369	241.24071	10.35598	431.23901	-59.89622	1163.14941	-557.79260	-128.33508	582.56531	-300.52618	31.45867	586.86090	-316.17749	-35.10461	573.75909	640.51038	121.45516	572.70227	626.06372	
2597	25.960	-226.86499	24.37220	-161.24146	181.00079	25.71725	-205.70723	-161.89818	4.87219	442.41098	241.70001	9.94294	431.27441	-59.10181	1163.26587	-557.51941	-126.96265	582.70435	-300.30087	32.05452	586.92487	-315.74814	-34.39151	573.42175	640.67511	121.94563	571.90887	626.38605	
